# xmcd
#
# Track frame offsets:
#	150
#	20140
#	31920
#	47924
#	56767
#	72026
#	91542
#	106085
#	117971
#	136871
#	149076
#	163215
#	176980
#	198120
#	220457
#
# Disc length: 4183 seconds
#
# Revision: 1
# Processed by: cddbd v1.5.2PL0 Copyright (c) Steve Scherf et al.
# Submitted via: audiograbber 1.83.01
#
DISCID=dc10550f
DTITLE=david allan coe - ultimate collection
DYEAR=1900
DGENRE=
TTITLE0=a satisfied mind
TTITLE1=ruby, don't take your love to town
TTITLE2=give my love to rose
TTITLE3=funnzy was an outlaw
TTITLE4=mary madeline
TTITLE5=that old time feeling
TTITLE6=why me
TTITLE7=got you on my mind
TTITLE8=you can always come back to me
TTITLE9=mississippi woman
TTITLE10=ride me down easy
TTITLE11=why you been gone so long
TTITLE12=irish lullabye
TTITLE13=west virginia man
TTITLE14=Daten-CD
EXTD=
EXTT0=
EXTT1=
EXTT2=
EXTT3=
EXTT4=
EXTT5=
EXTT6=
EXTT7=
EXTT8=
EXTT9=
EXTT10=
EXTT11=
EXTT12=
EXTT13=
EXTT14=
PLAYORDER=
